<?xml version="1.0" encoding="utf-8"?>
<!-- Generator: Adobe Illustrator 25.0.0, SVG Export Plug-In . SVG Version: 6.00 Build 0)  -->
<svg version="1.1" id="격리_모드" xmlns="http://www.w3.org/2000/svg" xmlns:xlink="http://www.w3.org/1999/xlink" x="0px"
	 y="0px" viewBox="0 0 184.25 29.28" style="enable-background:new 0 0 184.25 29.28;" xml:space="preserve">
<style type="text/css">
	.st0{fill:#313130;}
</style>
<g>
	<g>
		<path class="st0" d="M47.91,20.38c-0.67,0.45-1.52,0.74-2.34,0.74c-2.14,0-3.63-1.7-3.63-4.17c0-2.5,1.49-4.17,3.63-4.17
			c0.82,0,1.66,0.28,2.34,0.74v-2.89c-1.01-0.82-2.23-1.24-3.5-1.24c-3.66,0-6.37,2.86-6.37,7.56c0,4.79,2.74,7.53,6.37,7.53
			c1.29,0,2.5-0.43,3.5-1.24V20.38z"/>
		<polygon class="st0" points="48.85,11.59 48.85,11.59 48.85,14.42 48.85,14.42 48.85,19.48 48.85,19.48 48.85,22.31 48.85,22.31 
			48.85,24.12 52.66,24.12 52.66,9.75 48.85,9.75 		"/>
		<polygon class="st0" points="58.98,24.12 58.98,9.77 58.99,9.77 58.99,9.75 55.21,9.75 55.21,24.12 58.99,24.12 58.99,24.12 		"/>
		<polygon class="st0" points="32.49,14.9 32.49,14.9 32.49,24.12 32.49,24.12 32.49,24.12 36.27,24.12 36.27,9.75 32.49,9.75 		"/>
		<path class="st0" d="M31.55,20.36c-0.63,0.44-1.43,0.76-2.34,0.76c-1.61,0-2.65-0.65-2.65-2.65V9.75h-3.78v10.21
			c0,2.8,1.49,4.52,4.64,4.52c1.73,0,3.12-0.58,4.12-1.32V20.36z"/>
		<path class="st0" d="M64.02,9.39c-1.71,0-3.11,0.6-4.1,1.35v2.78c0.62-0.45,1.42-0.77,2.34-0.77c1.61,0,2.65,0.68,2.65,2.68v8.69
			h3.78V13.97C68.69,11.17,67.18,9.39,64.02,9.39z"/>
		<rect x="76.84" y="9.75" class="st0" width="1.99" height="3.3"/>
		<path class="st0" d="M164.08,16.52l-2.63-1.21c-0.31,1-0.85,2.22-1.57,3.32c-0.49-0.57-0.98-1.13-1.47-1.75
			c-0.44-0.52-0.95-1.16-1.47-1.86c2.11-0.98,4.23-2.09,4.23-4.71c0-2.29-2.09-3.63-4.53-3.63c-2.86,0-4.89,1.8-4.89,4.12
			c0,1.16,0.46,2.42,1.13,3.68c-1.96,1-3.71,2.34-3.71,4.97c0,3.32,2.52,4.97,5.69,4.97c1.86,0,3.38-0.62,4.66-1.6
			c0.49,0.49,0.93,0.95,1.29,1.29h4.17c-1.19-1.21-2.27-2.34-3.3-3.45C162.67,19.36,163.46,17.89,164.08,16.52z M156.82,9.05
			c0.85,0,1.49,0.54,1.49,1.44c0,1.26-1.11,2.01-2.55,2.68c-0.44-0.8-0.75-1.6-0.75-2.29C155.01,9.83,155.79,9.05,156.82,9.05z
			 M155.3,21.86c-1.42,0-2.65-1.03-2.65-2.71c0-1.18,0.62-1.98,1.49-2.63c0.57,0.8,1.16,1.57,1.73,2.27
			c0.41,0.52,1.13,1.31,1.91,2.16C157.02,21.52,156.2,21.86,155.3,21.86z"/>
		<polygon class="st0" points="141.79,12.07 132.41,12.07 132.41,4.27 128.18,4.27 128.18,24.12 132.41,24.12 132.41,15.79 
			141.79,15.79 141.79,24.12 146.04,24.12 146.04,4.27 141.79,4.27 		"/>
		<path class="st0" d="M180.44,13.88c1.88-0.39,3.42-2.05,3.42-4.55c0-2.65-1.94-5.06-5.72-5.06H167.7v19.86h10.78
			c3.78,0,5.77-2.38,5.77-5.36C184.25,16.26,182.55,14.21,180.44,13.88z M171.92,7.87h5.3c1.43,0,2.32,0.95,2.32,2.17
			c0,1.28-0.89,2.2-2.32,2.2h-5.3V7.87z M177.37,20.52h-5.45v-4.67h5.45c1.67,0,2.56,1.07,2.56,2.32
			C179.93,19.6,178.98,20.52,177.37,20.52z"/>
		<path class="st0" d="M114.2,9.39c-2.2,0-4.11,1.31-4.94,2.62c-0.54-1.64-1.88-2.62-3.99-2.62c-1.5,0-2.86,0.64-3.77,1.31v2.79
			c0.56-0.42,1.26-0.74,2.04-0.74c1.55,0,2.14,0.95,2.14,2.29v9.08h3.81v-9.7c0.54-0.77,1.64-1.67,2.98-1.67
			c1.55,0,2.14,0.95,2.14,2.29v9.08h3.81V13.73C118.43,10.79,116.85,9.39,114.2,9.39z"/>
		<path class="st0" d="M89.53,20.37c-0.63,0.44-1.42,0.75-2.33,0.75c-1.61,0-2.65-0.65-2.65-2.65V9.75h-3.78v10.21
			c0,2.8,1.49,4.52,4.64,4.52c1.72,0,3.11-0.58,4.11-1.32V20.37z"/>
		<path class="st0" d="M77.22,21.12c-0.83,0-1.31-0.68-1.31-1.58v-0.2h-0.01V5.82h-3.8v3.93h-2.38v3.3h2.38v7.5
			c0,2.56,1.43,3.93,4.08,3.93c1.58,0,2.59-0.42,3.16-0.92l-0.8-2.86C78.33,20.91,77.79,21.12,77.22,21.12z"/>
		<polygon class="st0" points="100.57,11.62 100.56,11.62 100.56,9.75 96.78,9.75 96.78,24.12 100.56,24.12 100.56,14.45 
			100.57,14.45 		"/>
		<polygon class="st0" points="90.47,19.48 90.46,19.49 90.46,22.32 90.47,22.31 90.47,24.12 94.25,24.12 94.25,9.75 90.47,9.75 		
			"/>
	</g>
	<path class="st0" d="M20.76,14.21c0-5.99-4.39-10.27-10.4-10.27C4.37,3.94,0,8.22,0,14.21s4.37,10.27,10.36,10.27
		c1.72,0,3.33-0.37,4.74-1.01l1.57,1.86l2.96-2.4l-1.46-1.71C19.8,19.45,20.76,17.01,20.76,14.21z M16.33,15.19
		c0.02,0.03,0,0.07,0,0.1c-0.03,0.31-0.1,0.61-0.17,0.91c0,0.02,0,0.03-0.02,0.05c-0.09,0.31-0.19,0.63-0.31,0.91
		c-0.12,0.3-0.26,0.57-0.44,0.84c-0.75,1.27-1.93,2.18-3.43,2.54c-0.16,0.03-0.31,0.07-0.47,0.1c-0.14,0.02-0.28,0.03-0.44,0.05
		c-0.21,0.02-0.4,0.03-0.61,0.03H10.4c-0.7,0-1.32-0.1-1.92-0.28c-0.1-0.03-0.23-0.07-0.33-0.12c-2.37-0.89-3.8-3.22-3.8-6.11
		c0-0.33,0.02-0.66,0.07-0.98c-0.02-0.03,0-0.07,0-0.1c0.03-0.31,0.1-0.61,0.17-0.91c0-0.02,0-0.03,0.02-0.05
		c0.07-0.31,0.17-0.61,0.31-0.91c0.1-0.3,0.26-0.57,0.44-0.84C6.11,9.16,7.3,8.26,8.79,7.89c0.16-0.03,0.3-0.07,0.47-0.1
		C9.4,7.77,9.56,7.75,9.7,7.73c0.19-0.02,0.4-0.03,0.61-0.03h0.09c0.68,0,1.31,0.09,1.88,0.28c0.12,0.03,0.23,0.07,0.33,0.12
		c0.66,0.24,1.24,0.59,1.72,1.04c0.16,0.14,0.3,0.28,0.42,0.42c0.07,0.09,0.16,0.17,0.21,0.26c0.44,0.52,0.78,1.13,1.01,1.79
		c0.05,0.14,0.1,0.28,0.14,0.44c0.19,0.66,0.3,1.39,0.3,2.16C16.4,14.54,16.39,14.87,16.33,15.19z"/>
</g>
</svg>
