<?xml version="1.0" encoding="utf-8"?>
<!-- Generator: Adobe Illustrator 25.0.0, SVG Export Plug-In . SVG Version: 6.00 Build 0)  -->
<svg version="1.1" id="out" xmlns="http://www.w3.org/2000/svg" xmlns:xlink="http://www.w3.org/1999/xlink" x="0px" y="0px"
	 viewBox="0 0 1080 1920" style="enable-background:new 0 0 1080 1920;" xml:space="preserve">
<style type="text/css">
	.st0{fill:#5FEA2A;}
	.st1{fill:#FFFFFF;}
</style>
<g>
	<path class="st0" d="M2058.12,1816.76c-0.24,0-0.48-0.06-0.7-0.17c-0.24-0.12-24.04-12.72-39.55-32.04
		c-0.52-0.65-0.42-1.59,0.23-2.11c0.65-0.52,1.59-0.41,2.11,0.23c13.66,17.01,33.93,28.69,37.91,30.89
		c6.13-3.34,50.81-28.83,50.81-62.64c0-14.78-12.03-26.81-26.81-26.81c-9.28,0-17.78,4.72-22.73,12.63
		c-0.27,0.44-0.75,0.71-1.27,0.71l0,0c-0.52,0-1-0.27-1.27-0.71c-4.95-7.91-13.44-12.63-22.73-12.63
		c-14.79,0-26.81,12.03-26.81,26.81c0,4.55,1.29,11.57,3,16.5l21.86-0.37l4.77-19.57c0.16-0.66,0.75-1.13,1.43-1.14
		c0.01,0,0.02,0,0.03,0c0.67,0,1.26,0.44,1.44,1.09l6.52,22.92l4.47-14.73c0.2-0.65,0.79-1.11,1.49-1.06
		c0.68,0.03,1.26,0.51,1.41,1.17l2.58,11.57l7.01-0.06c0,0,0.01,0,0.01,0c0.82,0,1.49,0.66,1.5,1.49c0.01,0.83-0.66,1.5-1.49,1.51
		l-8.22,0.07c-0.69,0.01-1.32-0.48-1.48-1.17l-1.6-7.19l-4.3,14.15c-0.19,0.63-0.78,1.06-1.44,1.06c0,0-0.01,0-0.01,0
		c-0.67-0.01-1.25-0.45-1.43-1.09l-6.36-22.36l-3.7,15.17c-0.16,0.66-0.75,1.13-1.43,1.14l-24.09,0.41
		c-0.64,0.02-1.2-0.38-1.43-0.97c-2.02-5.32-3.55-13.29-3.55-18.55c0-16.44,13.37-29.81,29.81-29.81c9.57,0,18.38,4.51,24,12.17
		c5.62-7.66,14.43-12.17,24-12.17c16.44,0,29.81,13.37,29.81,29.81c0,37.96-50.96,64.57-53.13,65.68
		C2058.59,1816.71,2058.36,1816.76,2058.12,1816.76z"/>
</g>
<g>
	<path class="st0" d="M2043.92,1796.72v-6.98h2.75c2.19,0,3.71,1.39,3.71,3.5c0,2.1-1.52,3.49-3.71,3.49H2043.92z M2045.41,1795.41
		h1.27c1.38,0,2.19-0.99,2.19-2.18c0-1.24-0.75-2.19-2.19-2.19h-1.27V1795.41z"/>
	<path class="st0" d="M2050.99,1796.72v-5.06h1.33v0.69c0.36-0.45,0.98-0.81,1.61-0.81v1.3c-0.09-0.02-0.22-0.03-0.37-0.03
		c-0.44,0-1.03,0.24-1.25,0.57v3.34H2050.99z"/>
	<path class="st0" d="M2054.11,1795.14c0.46,0,0.85,0.39,0.85,0.85c0,0.46-0.39,0.85-0.85,0.85s-0.85-0.39-0.85-0.85
		C2053.26,1795.53,2053.65,1795.14,2054.11,1795.14z"/>
	<path class="st0" d="M2064.05,1796.72v-5.02l-1.97,5.02h-0.65l-1.97-5.02v5.02h-1.49v-6.98h2.08l1.7,4.35l1.7-4.35h2.09v6.98
		H2064.05z"/>
	<path class="st0" d="M2066.17,1793.23c0-2.15,1.62-3.61,3.66-3.61c1.59,0,2.48,0.84,2.97,1.71l-1.28,0.63
		c-0.29-0.57-0.92-1.02-1.7-1.02c-1.21,0-2.14,0.97-2.14,2.29c0,1.32,0.92,2.29,2.14,2.29c0.77,0,1.4-0.44,1.7-1.02l1.28,0.62
		c-0.5,0.87-1.38,1.72-2.97,1.72C2067.8,1796.84,2066.17,1795.38,2066.17,1793.23z"/>
</g>
<g>
	<path class="st0" d="M2076.25,1777.15c-8.5,0-15.41-6.91-15.41-15.41s6.91-15.41,15.41-15.41c0.83,0,1.5,0.67,1.5,1.5
		s-0.67,1.5-1.5,1.5c-6.84,0-12.41,5.57-12.41,12.41s5.57,12.41,12.41,12.41c0.83,0,1.5,0.67,1.5,1.5
		S2077.08,1777.15,2076.25,1777.15z"/>
</g>
<g>
	<g>
		<g>
			<ellipse class="st1" cx="2076.5" cy="1755.35" rx="0.77" ry="2.88"/>
		</g>
	</g>
	<g>
		<g>
			
				<ellipse transform="matrix(0.866 -0.5 0.5 0.866 -600.2884 1271.8868)" class="st1" cx="2073.23" cy="1756.1" rx="0.77" ry="2.88"/>
		</g>
	</g>
	<g>
		<g>
			
				<ellipse transform="matrix(0.5 -0.866 0.866 0.5 -487.4139 2672.5254)" class="st1" cx="2070.77" cy="1758.38" rx="0.77" ry="2.88"/>
		</g>
	</g>
	<g>
		<g>
			<ellipse class="st1" cx="2069.78" cy="1761.58" rx="2.88" ry="0.77"/>
		</g>
	</g>
	<g>
		<g>
			
				<ellipse transform="matrix(0.866 -0.5 0.5 0.866 -605.0282 1271.7045)" class="st1" cx="2070.52" cy="1764.85" rx="2.88" ry="0.77"/>
		</g>
	</g>
	<g>
		<g>
			
				<ellipse transform="matrix(0.5 -0.866 0.866 0.5 -494.1378 2678.7507)" class="st1" cx="2072.8" cy="1767.31" rx="2.88" ry="0.77"/>
		</g>
	</g>
	<g>
		<g>
			<ellipse class="st1" cx="2076" cy="1768.3" rx="0.77" ry="2.88"/>
		</g>
	</g>
	<g>
		<g>
			
				<ellipse transform="matrix(0.866 -0.5 0.5 0.866 -605.2106 1276.4442)" class="st1" cx="2079.27" cy="1767.56" rx="0.77" ry="2.88"/>
		</g>
	</g>
	<g>
		<g>
			
				<ellipse transform="matrix(0.5 -0.866 0.866 0.5 -487.9123 2685.4746)" class="st1" cx="2081.73" cy="1765.28" rx="0.77" ry="2.88"/>
		</g>
	</g>
	<g>
		<g>
			<ellipse class="st0" cx="2082.73" cy="1762.08" rx="2.88" ry="0.77"/>
		</g>
	</g>
	<g>
		<g>
			
				<ellipse transform="matrix(0.866 -0.5 0.5 0.866 -600.4708 1276.6266)" class="st1" cx="2081.98" cy="1758.81" rx="2.88" ry="0.77"/>
		</g>
	</g>
	<g>
		<g>
			
				<ellipse transform="matrix(0.5 -0.866 0.866 0.5 -481.1884 2679.2493)" class="st1" cx="2079.7" cy="1756.35" rx="2.88" ry="0.77"/>
		</g>
	</g>
	<g>
		<circle class="st1" cx="2076.25" cy="1761.83" r="1.72"/>
	</g>
</g>
</svg>
